<?xml version="1.0" standalone="no"?>
<!DOCTYPE svg PUBLIC "-//W3C//DTD SVG 20010904//EN"
 "http://www.w3.org/TR/2001/REC-SVG-20010904/DTD/svg10.dtd">
<svg version="1.0" xmlns="http://www.w3.org/2000/svg"
 width="700.000000pt" height="700.000000pt" viewBox="0 0 700.000000 700.000000"
 preserveAspectRatio="xMidYMid meet">
<metadata>
Created by potrace 1.14, written by Peter Selinger 2001-2017
</metadata>
<g transform="translate(0.000000,700.000000) scale(0.100000,-0.100000)"
fill="#000000" stroke="none">
<path d="M3469 5499 c-236 -26 -467 -164 -595 -356 -90 -135 -133 -238 -165
-393 -33 -158 -40 -404 -15 -526 5 -26 11 -61 21 -119 2 -11 6 -37 9 -59 4
-21 8 -42 11 -46 3 -4 7 -25 11 -46 15 -103 65 -229 123 -314 27 -38 31 -58
16 -64 -18 -7 -42 -94 -44 -157 -1 -23 -7 -28 -38 -34 -46 -8 -58 -18 -90 -68
-31 -50 -51 -106 -58 -165 -7 -52 -9 -54 -131 -144 -154 -114 -243 -221 -357
-428 -34 -63 -107 -222 -111 -244 -2 -6 -15 -49 -30 -96 -15 -47 -36 -130 -46
-185 -18 -98 -22 -124 -35 -215 -4 -25 -11 -65 -16 -90 -6 -25 -10 -51 -11
-57 -1 -7 -5 -13 -8 -13 -14 0 -20 -61 -7 -81 13 -22 103 -53 182 -63 217 -29
643 -39 1590 -40 1147 0 1327 11 1400 90 28 30 32 62 11 102 -7 15 -17 54 -20
87 -4 33 -9 69 -12 80 -4 20 -6 34 -19 135 -12 99 -44 243 -74 335 -103 317
-240 517 -451 657 -31 21 -35 29 -37 71 -5 110 -53 205 -116 230 l-31 13 36
39 c52 58 73 101 98 200 37 146 15 258 -63 336 -58 58 -59 67 -21 221 55 221
71 405 50 560 -3 24 -9 63 -12 88 -17 125 -79 283 -157 400 -45 68 -166 183
-243 233 -157 100 -358 147 -545 126z"/>
</g>
</svg>
